<svg xmlns="http://www.w3.org/2000/svg" width="1200" height="900" viewBox="0 0 1200 900" role="img" aria-labelledby="title desc">
  <title id="title">beyerdynamic DT 770 PRO 80 Ohm</title>
  <desc id="desc">Eigene Produktvisualisierung fuer KlangFinder, keine Hersteller- oder Amazon-Grafik.</desc>
  
  <defs>
    <linearGradient id="bg" x1="0" x2="1" y1="0" y2="1">
      <stop offset="0%" stop-color="#111827"/>
      <stop offset="46%" stop-color="#172033"/>
      <stop offset="100%" stop-color="#eff6ff"/>
    </linearGradient>
    <radialGradient id="halo" cx="50%" cy="35%" r="55%">
      <stop offset="0%" stop-color="#e5e7eb" stop-opacity="0.75"/>
      <stop offset="58%" stop-color="#64748b" stop-opacity="0.18"/>
      <stop offset="100%" stop-color="#64748b" stop-opacity="0"/>
    </radialGradient>
    <linearGradient id="body" x1="0" x2="1" y1="0" y2="1">
      <stop offset="0%" stop-color="#f8fbff"/>
      <stop offset="44%" stop-color="#e5e7eb"/>
      <stop offset="100%" stop-color="#64748b"/>
    </linearGradient>
    <linearGradient id="darkBody" x1="0" x2="1" y1="0" y2="1">
      <stop offset="0%" stop-color="#273247"/>
      <stop offset="100%" stop-color="#060b14"/>
    </linearGradient>
    <filter id="shadow" x="-30%" y="-30%" width="160%" height="170%">
      <feDropShadow dx="0" dy="34" stdDeviation="28" flood-color="#020617" flood-opacity="0.38"/>
    </filter>
    <filter id="soft" x="-20%" y="-20%" width="140%" height="140%">
      <feGaussianBlur stdDeviation="18"/>
    </filter>
  </defs>
  <rect width="1200" height="900" rx="58" fill="url(#bg)"/>
  <circle cx="340" cy="150" r="250" fill="url(#halo)"/>
  <circle cx="920" cy="220" r="260" fill="#e5e7eb" opacity="0.18" filter="url(#soft)"/>
  <ellipse cx="600" cy="764" rx="365" ry="66" fill="#020617" opacity="0.28" filter="url(#soft)"/>

  
  <g filter="url(#shadow)" transform="translate(0 12)">
    <path d="M344 486 C344 235 856 235 856 486" fill="none" stroke="url(#darkBody)" stroke-width="82" stroke-linecap="round"/>
    <path d="M386 466 C386 286 814 286 814 466" fill="none" stroke="#e5e7eb" stroke-width="22" stroke-linecap="round" opacity="0.75"/>
    <rect x="235" y="424" width="235" height="305" rx="88" fill="url(#darkBody)"/>
    <rect x="730" y="424" width="235" height="305" rx="88" fill="url(#darkBody)"/>
    <rect x="280" y="475" width="145" height="202" rx="54" fill="url(#body)"/>
    <rect x="775" y="475" width="145" height="202" rx="54" fill="url(#body)"/>
    <path d="M472 530 C548 567 652 567 728 530" stroke="#64748b" stroke-width="18" stroke-linecap="round" opacity="0.55"/>
  </g>

</svg>
