<svg xmlns="http://www.w3.org/2000/svg" width="1200" height="900" viewBox="0 0 1200 900" role="img" aria-labelledby="title desc">
  <title id="title">Nothing Ear (a)</title>
  <desc id="desc">Eigene Produktvisualisierung fuer KlangFinder, keine Hersteller- oder Amazon-Grafik.</desc>
  
  <defs>
    <linearGradient id="bg" x1="0" x2="1" y1="0" y2="1">
      <stop offset="0%" stop-color="#1f2937"/>
      <stop offset="46%" stop-color="#172033"/>
      <stop offset="100%" stop-color="#eff6ff"/>
    </linearGradient>
    <radialGradient id="halo" cx="50%" cy="35%" r="55%">
      <stop offset="0%" stop-color="#fde68a" stop-opacity="0.75"/>
      <stop offset="58%" stop-color="#f59e0b" stop-opacity="0.18"/>
      <stop offset="100%" stop-color="#f59e0b" stop-opacity="0"/>
    </radialGradient>
    <linearGradient id="body" x1="0" x2="1" y1="0" y2="1">
      <stop offset="0%" stop-color="#f8fbff"/>
      <stop offset="44%" stop-color="#fde68a"/>
      <stop offset="100%" stop-color="#f59e0b"/>
    </linearGradient>
    <linearGradient id="darkBody" x1="0" x2="1" y1="0" y2="1">
      <stop offset="0%" stop-color="#273247"/>
      <stop offset="100%" stop-color="#060b14"/>
    </linearGradient>
    <filter id="shadow" x="-30%" y="-30%" width="160%" height="170%">
      <feDropShadow dx="0" dy="34" stdDeviation="28" flood-color="#020617" flood-opacity="0.38"/>
    </filter>
    <filter id="soft" x="-20%" y="-20%" width="140%" height="140%">
      <feGaussianBlur stdDeviation="18"/>
    </filter>
  </defs>
  <rect width="1200" height="900" rx="58" fill="url(#bg)"/>
  <circle cx="340" cy="150" r="250" fill="url(#halo)"/>
  <circle cx="920" cy="220" r="260" fill="#fde68a" opacity="0.18" filter="url(#soft)"/>
  <ellipse cx="600" cy="764" rx="365" ry="66" fill="#020617" opacity="0.28" filter="url(#soft)"/>

  
  <g filter="url(#shadow)">
    <rect x="315" y="472" width="570" height="236" rx="118" fill="url(#darkBody)"/>
    <rect x="360" y="512" width="480" height="150" rx="75" fill="url(#body)" opacity="0.88"/>
    <path d="M455 376 C408 405 391 470 420 518 C445 559 512 553 530 507 C554 446 513 397 455 376Z" fill="url(#body)"/>
    <path d="M745 376 C792 405 809 470 780 518 C755 559 688 553 670 507 C646 446 687 397 745 376Z" fill="url(#body)"/>
    <rect x="502" y="486" width="54" height="140" rx="27" fill="#f59e0b" opacity="0.72"/>
    <rect x="644" y="486" width="54" height="140" rx="27" fill="#f59e0b" opacity="0.72"/>
    <circle cx="462" cy="455" r="48" fill="#f8fbff" opacity="0.92"/>
    <circle cx="738" cy="455" r="48" fill="#f8fbff" opacity="0.92"/>
  </g>

</svg>
