<svg xmlns="http://www.w3.org/2000/svg" width="1200" height="900" viewBox="0 0 1200 900" role="img" aria-labelledby="title desc">
  <title id="title">Shokz OpenRun Pro 2</title>
  <desc id="desc">Eigene Produktvisualisierung fuer KlangFinder, keine Hersteller- oder Amazon-Grafik.</desc>
  
  <defs>
    <linearGradient id="bg" x1="0" x2="1" y1="0" y2="1">
      <stop offset="0%" stop-color="#0f172a"/>
      <stop offset="46%" stop-color="#172033"/>
      <stop offset="100%" stop-color="#eff6ff"/>
    </linearGradient>
    <radialGradient id="halo" cx="50%" cy="35%" r="55%">
      <stop offset="0%" stop-color="#19f4c7" stop-opacity="0.75"/>
      <stop offset="58%" stop-color="#0ea5e9" stop-opacity="0.18"/>
      <stop offset="100%" stop-color="#0ea5e9" stop-opacity="0"/>
    </radialGradient>
    <linearGradient id="body" x1="0" x2="1" y1="0" y2="1">
      <stop offset="0%" stop-color="#f8fbff"/>
      <stop offset="44%" stop-color="#19f4c7"/>
      <stop offset="100%" stop-color="#0ea5e9"/>
    </linearGradient>
    <linearGradient id="darkBody" x1="0" x2="1" y1="0" y2="1">
      <stop offset="0%" stop-color="#273247"/>
      <stop offset="100%" stop-color="#060b14"/>
    </linearGradient>
    <filter id="shadow" x="-30%" y="-30%" width="160%" height="170%">
      <feDropShadow dx="0" dy="34" stdDeviation="28" flood-color="#020617" flood-opacity="0.38"/>
    </filter>
    <filter id="soft" x="-20%" y="-20%" width="140%" height="140%">
      <feGaussianBlur stdDeviation="18"/>
    </filter>
  </defs>
  <rect width="1200" height="900" rx="58" fill="url(#bg)"/>
  <circle cx="340" cy="150" r="250" fill="url(#halo)"/>
  <circle cx="920" cy="220" r="260" fill="#19f4c7" opacity="0.18" filter="url(#soft)"/>
  <ellipse cx="600" cy="764" rx="365" ry="66" fill="#020617" opacity="0.28" filter="url(#soft)"/>

  
  <g filter="url(#shadow)" transform="translate(0 16)">
    <path d="M338 512 C380 340 522 340 550 492" fill="none" stroke="url(#darkBody)" stroke-width="52" stroke-linecap="round"/>
    <path d="M862 512 C820 340 678 340 650 492" fill="none" stroke="url(#darkBody)" stroke-width="52" stroke-linecap="round"/>
    <path d="M420 566 C500 618 700 618 780 566" fill="none" stroke="#19f4c7" stroke-width="26" stroke-linecap="round"/>
    <ellipse cx="524" cy="525" rx="98" ry="124" fill="url(#body)"/>
    <ellipse cx="676" cy="525" rx="98" ry="124" fill="url(#body)"/>
    <circle cx="524" cy="525" r="44" fill="#0ea5e9" opacity="0.72"/>
    <circle cx="676" cy="525" r="44" fill="#0ea5e9" opacity="0.72"/>
  </g>

</svg>
