<svg xmlns="http://www.w3.org/2000/svg" width="1200" height="900" viewBox="0 0 1200 900" role="img" aria-labelledby="title desc">
  <title id="title">Shokz OpenFit Air</title>
  <desc id="desc">Eigene realistische Studio-Produktvisualisierung fuer KlangFinder, keine Hersteller- oder Amazon-Grafik.</desc>
  
  <defs>
    <linearGradient id="bg" x1="0" x2="1" y1="0" y2="1">
      <stop offset="0%" stop-color="#07111f"/>
      <stop offset="52%" stop-color="#111827"/>
      <stop offset="100%" stop-color="#e8eef7"/>
    </linearGradient>
    <linearGradient id="floor" x1="0" x2="1" y1="0" y2="1">
      <stop offset="0%" stop-color="#0b1220"/>
      <stop offset="45%" stop-color="#223047"/>
      <stop offset="100%" stop-color="#dbe6f0"/>
    </linearGradient>
    <radialGradient id="halo" cx="50%" cy="35%" r="55%">
      <stop offset="0%" stop-color="#5eead4" stop-opacity="0.68"/>
      <stop offset="58%" stop-color="#0f766e" stop-opacity="0.2"/>
      <stop offset="100%" stop-color="#0f766e" stop-opacity="0"/>
    </radialGradient>
    <linearGradient id="body" x1="0" x2="1" y1="0" y2="1">
      <stop offset="0%" stop-color="#ffffff"/>
      <stop offset="14%" stop-color="#f3f7fb"/>
      <stop offset="48%" stop-color="#5eead4"/>
      <stop offset="100%" stop-color="#0f766e"/>
    </linearGradient>
    <linearGradient id="darkBody" x1="0" x2="1" y1="0" y2="1">
      <stop offset="0%" stop-color="#3a465a"/>
      <stop offset="42%" stop-color="#141d2d"/>
      <stop offset="100%" stop-color="#04070d"/>
    </linearGradient>
    <linearGradient id="rubber" x1="0" x2="1" y1="0" y2="1">
      <stop offset="0%" stop-color="#374151"/>
      <stop offset="48%" stop-color="#111827"/>
      <stop offset="100%" stop-color="#030712"/>
    </linearGradient>
    <linearGradient id="cushion" x1="0" x2="1" y1="0" y2="1">
      <stop offset="0%" stop-color="#64748b"/>
      <stop offset="40%" stop-color="#1f2937"/>
      <stop offset="100%" stop-color="#020617"/>
    </linearGradient>
    <linearGradient id="metal" x1="0" x2="1" y1="0" y2="1">
      <stop offset="0%" stop-color="#f8fafc"/>
      <stop offset="36%" stop-color="#b6c2d1"/>
      <stop offset="66%" stop-color="#5b6b80"/>
      <stop offset="100%" stop-color="#111827"/>
    </linearGradient>
    <linearGradient id="glass" x1="0" x2="1" y1="0" y2="1">
      <stop offset="0%" stop-color="#ffffff" stop-opacity="0.88"/>
      <stop offset="55%" stop-color="#ffffff" stop-opacity="0.18"/>
      <stop offset="100%" stop-color="#ffffff" stop-opacity="0"/>
    </linearGradient>
    <filter id="shadow" x="-30%" y="-30%" width="160%" height="170%">
      <feDropShadow dx="0" dy="32" stdDeviation="24" flood-color="#020617" flood-opacity="0.45"/>
      <feDropShadow dx="0" dy="8" stdDeviation="8" flood-color="#ffffff" flood-opacity="0.08"/>
    </filter>
    <filter id="soft" x="-20%" y="-20%" width="140%" height="140%">
      <feGaussianBlur stdDeviation="18"/>
    </filter>
    <filter id="texture" x="-8%" y="-8%" width="116%" height="116%">
      <feTurbulence type="fractalNoise" baseFrequency="0.7" numOctaves="2" seed="1465" result="noise"/>
      <feColorMatrix in="noise" type="saturate" values="0"/>
      <feComponentTransfer>
        <feFuncA type="table" tableValues="0 0.12"/>
      </feComponentTransfer>
      <feBlend in="SourceGraphic" mode="soft-light"/>
    </filter>
    <pattern id="fineMesh" width="28" height="28" patternUnits="userSpaceOnUse">
      <path d="M0 14H28M14 0V28" stroke="#e2e8f0" stroke-width="1.2" opacity="0.12"/>
      <circle cx="14" cy="14" r="1.7" fill="#e2e8f0" opacity="0.2"/>
    </pattern>
  </defs>
  <rect width="1200" height="900" rx="58" fill="url(#bg)"/>
  <circle cx="315" cy="150" r="278" fill="url(#halo)"/>
  <circle cx="925" cy="218" r="246" fill="#5eead4" opacity="0.14" filter="url(#soft)"/>
  <path d="M0 635 C210 590 392 585 596 636 C815 690 1004 682 1200 628 V900 H0 Z" fill="url(#floor)" opacity="0.92"/>
  <path d="M95 675 C358 625 828 632 1098 684" fill="none" stroke="#ffffff" stroke-width="2" opacity="0.16"/>
  <ellipse cx="600" cy="752" rx="380" ry="70" fill="#020617" opacity="0.32" filter="url(#soft)"/>

  <g transform="translate(600 535) scale(1.16) translate(-600 -535)">
    
  <g filter="url(#shadow)" transform="rotate(3 600 540) translate(0 12)">
    <path d="M342 514 C374 322 526 318 560 486" fill="none" stroke="url(#rubber)" stroke-width="54" stroke-linecap="round"/>
    <path d="M858 514 C826 322 674 318 640 486" fill="none" stroke="url(#rubber)" stroke-width="54" stroke-linecap="round"/>
    <path d="M392 567 C486 650 714 650 808 567" fill="none" stroke="url(#metal)" stroke-width="30" stroke-linecap="round"/>
    <path d="M426 568 C510 618 690 618 774 568" fill="none" stroke="#5eead4" stroke-width="12" stroke-linecap="round" opacity="0.82"/>
    <ellipse cx="520" cy="526" rx="104" ry="126" fill="url(#body)" filter="url(#texture)"/>
    <ellipse cx="680" cy="526" rx="104" ry="126" fill="url(#body)" filter="url(#texture)"/>
    <ellipse cx="520" cy="526" rx="52" ry="64" fill="url(#rubber)" opacity="0.92"/>
    <ellipse cx="680" cy="526" rx="52" ry="64" fill="url(#rubber)" opacity="0.92"/>
    <circle cx="520" cy="515" r="22" fill="#0f766e" opacity="0.82"/>
    <circle cx="680" cy="515" r="22" fill="#0f766e" opacity="0.82"/>
  </g>

  </g>
</svg>
