<svg xmlns="http://www.w3.org/2000/svg" width="1200" height="900" viewBox="0 0 1200 900" role="img" aria-labelledby="title desc">
  <title id="title">Sony ULT Field 1</title>
  <desc id="desc">Eigene Produktvisualisierung fuer KlangFinder, keine Hersteller- oder Amazon-Grafik.</desc>
  
  <defs>
    <linearGradient id="bg" x1="0" x2="1" y1="0" y2="1">
      <stop offset="0%" stop-color="#0f172a"/>
      <stop offset="46%" stop-color="#172033"/>
      <stop offset="100%" stop-color="#eff6ff"/>
    </linearGradient>
    <radialGradient id="halo" cx="50%" cy="35%" r="55%">
      <stop offset="0%" stop-color="#19f4c7" stop-opacity="0.75"/>
      <stop offset="58%" stop-color="#0ea5e9" stop-opacity="0.18"/>
      <stop offset="100%" stop-color="#0ea5e9" stop-opacity="0"/>
    </radialGradient>
    <linearGradient id="body" x1="0" x2="1" y1="0" y2="1">
      <stop offset="0%" stop-color="#f8fbff"/>
      <stop offset="44%" stop-color="#19f4c7"/>
      <stop offset="100%" stop-color="#0ea5e9"/>
    </linearGradient>
    <linearGradient id="darkBody" x1="0" x2="1" y1="0" y2="1">
      <stop offset="0%" stop-color="#273247"/>
      <stop offset="100%" stop-color="#060b14"/>
    </linearGradient>
    <filter id="shadow" x="-30%" y="-30%" width="160%" height="170%">
      <feDropShadow dx="0" dy="34" stdDeviation="28" flood-color="#020617" flood-opacity="0.38"/>
    </filter>
    <filter id="soft" x="-20%" y="-20%" width="140%" height="140%">
      <feGaussianBlur stdDeviation="18"/>
    </filter>
  </defs>
  <rect width="1200" height="900" rx="58" fill="url(#bg)"/>
  <circle cx="340" cy="150" r="250" fill="url(#halo)"/>
  <circle cx="920" cy="220" r="260" fill="#19f4c7" opacity="0.18" filter="url(#soft)"/>
  <ellipse cx="600" cy="764" rx="365" ry="66" fill="#020617" opacity="0.28" filter="url(#soft)"/>

  
  <g filter="url(#shadow)" transform="translate(0 8)">
    <rect x="224" y="350" width="752" height="330" rx="118" fill="url(#darkBody)"/>
    <rect x="280" y="405" width="640" height="220" rx="84" fill="#142033"/>
    <g opacity="0.9">
      <line x1="328" y1="424" x2="328" y2="606" stroke="#19f4c7" stroke-width="8" stroke-linecap="round" opacity="0.28"/><line x1="373" y1="424" x2="373" y2="606" stroke="#19f4c7" stroke-width="8" stroke-linecap="round" opacity="0.42000000000000004"/><line x1="418" y1="424" x2="418" y2="606" stroke="#19f4c7" stroke-width="8" stroke-linecap="round" opacity="0.56"/><line x1="463" y1="424" x2="463" y2="606" stroke="#19f4c7" stroke-width="8" stroke-linecap="round" opacity="0.28"/><line x1="508" y1="424" x2="508" y2="606" stroke="#19f4c7" stroke-width="8" stroke-linecap="round" opacity="0.42000000000000004"/><line x1="553" y1="424" x2="553" y2="606" stroke="#19f4c7" stroke-width="8" stroke-linecap="round" opacity="0.56"/><line x1="598" y1="424" x2="598" y2="606" stroke="#19f4c7" stroke-width="8" stroke-linecap="round" opacity="0.28"/><line x1="643" y1="424" x2="643" y2="606" stroke="#19f4c7" stroke-width="8" stroke-linecap="round" opacity="0.42000000000000004"/><line x1="688" y1="424" x2="688" y2="606" stroke="#19f4c7" stroke-width="8" stroke-linecap="round" opacity="0.56"/><line x1="733" y1="424" x2="733" y2="606" stroke="#19f4c7" stroke-width="8" stroke-linecap="round" opacity="0.28"/><line x1="778" y1="424" x2="778" y2="606" stroke="#19f4c7" stroke-width="8" stroke-linecap="round" opacity="0.42000000000000004"/><line x1="823" y1="424" x2="823" y2="606" stroke="#19f4c7" stroke-width="8" stroke-linecap="round" opacity="0.56"/><line x1="868" y1="424" x2="868" y2="606" stroke="#19f4c7" stroke-width="8" stroke-linecap="round" opacity="0.28"/>
    </g>
    <circle cx="404" cy="515" r="74" fill="url(#body)"/>
    <circle cx="796" cy="515" r="74" fill="url(#body)"/>
    <circle cx="404" cy="515" r="38" fill="#0ea5e9" opacity="0.85"/>
    <circle cx="796" cy="515" r="38" fill="#0ea5e9" opacity="0.85"/>
    <rect x="530" y="465" width="140" height="100" rx="50" fill="#19f4c7" opacity="0.22"/>
  </g>

</svg>
