<svg xmlns="http://www.w3.org/2000/svg" width="1200" height="900" viewBox="0 0 1200 900" role="img" aria-labelledby="title desc">
  <title id="title">Soundcore Boom 2 Plus</title>
  <desc id="desc">Eigene Produktvisualisierung fuer KlangFinder, keine Hersteller- oder Amazon-Grafik.</desc>
  
  <defs>
    <linearGradient id="bg" x1="0" x2="1" y1="0" y2="1">
      <stop offset="0%" stop-color="#111827"/>
      <stop offset="46%" stop-color="#172033"/>
      <stop offset="100%" stop-color="#eff6ff"/>
    </linearGradient>
    <radialGradient id="halo" cx="50%" cy="35%" r="55%">
      <stop offset="0%" stop-color="#a78bfa" stop-opacity="0.75"/>
      <stop offset="58%" stop-color="#7c3aed" stop-opacity="0.18"/>
      <stop offset="100%" stop-color="#7c3aed" stop-opacity="0"/>
    </radialGradient>
    <linearGradient id="body" x1="0" x2="1" y1="0" y2="1">
      <stop offset="0%" stop-color="#f8fbff"/>
      <stop offset="44%" stop-color="#a78bfa"/>
      <stop offset="100%" stop-color="#7c3aed"/>
    </linearGradient>
    <linearGradient id="darkBody" x1="0" x2="1" y1="0" y2="1">
      <stop offset="0%" stop-color="#273247"/>
      <stop offset="100%" stop-color="#060b14"/>
    </linearGradient>
    <filter id="shadow" x="-30%" y="-30%" width="160%" height="170%">
      <feDropShadow dx="0" dy="34" stdDeviation="28" flood-color="#020617" flood-opacity="0.38"/>
    </filter>
    <filter id="soft" x="-20%" y="-20%" width="140%" height="140%">
      <feGaussianBlur stdDeviation="18"/>
    </filter>
  </defs>
  <rect width="1200" height="900" rx="58" fill="url(#bg)"/>
  <circle cx="340" cy="150" r="250" fill="url(#halo)"/>
  <circle cx="920" cy="220" r="260" fill="#a78bfa" opacity="0.18" filter="url(#soft)"/>
  <ellipse cx="600" cy="764" rx="365" ry="66" fill="#020617" opacity="0.28" filter="url(#soft)"/>

  
  <g filter="url(#shadow)" transform="translate(0 8)">
    <rect x="385" y="205" width="430" height="560" rx="86" fill="url(#darkBody)"/>
    <rect x="438" y="260" width="324" height="450" rx="56" fill="#121c2d"/>
    <circle cx="600" cy="404" r="118" fill="url(#body)"/>
    <circle cx="600" cy="404" r="58" fill="#7c3aed" opacity="0.82"/>
    <circle cx="600" cy="604" r="96" fill="url(#body)"/>
    <circle cx="600" cy="604" r="44" fill="#7c3aed" opacity="0.82"/>
    <path d="M462 314 H738" stroke="#a78bfa" stroke-width="16" stroke-linecap="round" opacity="0.86"/>
    <path d="M462 734 H738" stroke="#a78bfa" stroke-width="16" stroke-linecap="round" opacity="0.6"/>
    <circle cx="473" cy="404" r="18" fill="#a78bfa"/>
    <circle cx="727" cy="604" r="18" fill="#a78bfa"/>
  </g>

</svg>
