<svg xmlns="http://www.w3.org/2000/svg" width="1200" height="900" viewBox="0 0 1200 900" role="img" aria-labelledby="title desc">
  <title id="title">Soundcore Motion+</title>
  <desc id="desc">Eigene realistische Studio-Produktvisualisierung fuer KlangFinder, keine Hersteller- oder Amazon-Grafik.</desc>
  
  <defs>
    <linearGradient id="bg" x1="0" x2="1" y1="0" y2="1">
      <stop offset="0%" stop-color="#07111f"/>
      <stop offset="52%" stop-color="#0f172a"/>
      <stop offset="100%" stop-color="#e8eef7"/>
    </linearGradient>
    <linearGradient id="floor" x1="0" x2="1" y1="0" y2="1">
      <stop offset="0%" stop-color="#0b1220"/>
      <stop offset="45%" stop-color="#223047"/>
      <stop offset="100%" stop-color="#dbe6f0"/>
    </linearGradient>
    <radialGradient id="halo" cx="50%" cy="35%" r="55%">
      <stop offset="0%" stop-color="#19f4c7" stop-opacity="0.68"/>
      <stop offset="58%" stop-color="#0ea5e9" stop-opacity="0.2"/>
      <stop offset="100%" stop-color="#0ea5e9" stop-opacity="0"/>
    </radialGradient>
    <linearGradient id="body" x1="0" x2="1" y1="0" y2="1">
      <stop offset="0%" stop-color="#ffffff"/>
      <stop offset="14%" stop-color="#f3f7fb"/>
      <stop offset="48%" stop-color="#19f4c7"/>
      <stop offset="100%" stop-color="#0ea5e9"/>
    </linearGradient>
    <linearGradient id="darkBody" x1="0" x2="1" y1="0" y2="1">
      <stop offset="0%" stop-color="#3a465a"/>
      <stop offset="42%" stop-color="#141d2d"/>
      <stop offset="100%" stop-color="#04070d"/>
    </linearGradient>
    <linearGradient id="rubber" x1="0" x2="1" y1="0" y2="1">
      <stop offset="0%" stop-color="#374151"/>
      <stop offset="48%" stop-color="#111827"/>
      <stop offset="100%" stop-color="#030712"/>
    </linearGradient>
    <linearGradient id="cushion" x1="0" x2="1" y1="0" y2="1">
      <stop offset="0%" stop-color="#64748b"/>
      <stop offset="40%" stop-color="#1f2937"/>
      <stop offset="100%" stop-color="#020617"/>
    </linearGradient>
    <linearGradient id="metal" x1="0" x2="1" y1="0" y2="1">
      <stop offset="0%" stop-color="#f8fafc"/>
      <stop offset="36%" stop-color="#b6c2d1"/>
      <stop offset="66%" stop-color="#5b6b80"/>
      <stop offset="100%" stop-color="#111827"/>
    </linearGradient>
    <linearGradient id="glass" x1="0" x2="1" y1="0" y2="1">
      <stop offset="0%" stop-color="#ffffff" stop-opacity="0.88"/>
      <stop offset="55%" stop-color="#ffffff" stop-opacity="0.18"/>
      <stop offset="100%" stop-color="#ffffff" stop-opacity="0"/>
    </linearGradient>
    <filter id="shadow" x="-30%" y="-30%" width="160%" height="170%">
      <feDropShadow dx="0" dy="32" stdDeviation="24" flood-color="#020617" flood-opacity="0.45"/>
      <feDropShadow dx="0" dy="8" stdDeviation="8" flood-color="#ffffff" flood-opacity="0.08"/>
    </filter>
    <filter id="soft" x="-20%" y="-20%" width="140%" height="140%">
      <feGaussianBlur stdDeviation="18"/>
    </filter>
    <filter id="texture" x="-8%" y="-8%" width="116%" height="116%">
      <feTurbulence type="fractalNoise" baseFrequency="0.7" numOctaves="2" seed="2968" result="noise"/>
      <feColorMatrix in="noise" type="saturate" values="0"/>
      <feComponentTransfer>
        <feFuncA type="table" tableValues="0 0.12"/>
      </feComponentTransfer>
      <feBlend in="SourceGraphic" mode="soft-light"/>
    </filter>
    <pattern id="fineMesh" width="28" height="28" patternUnits="userSpaceOnUse">
      <path d="M0 14H28M14 0V28" stroke="#e2e8f0" stroke-width="1.2" opacity="0.12"/>
      <circle cx="14" cy="14" r="1.7" fill="#e2e8f0" opacity="0.2"/>
    </pattern>
  </defs>
  <rect width="1200" height="900" rx="58" fill="url(#bg)"/>
  <circle cx="315" cy="150" r="278" fill="url(#halo)"/>
  <circle cx="925" cy="218" r="246" fill="#19f4c7" opacity="0.14" filter="url(#soft)"/>
  <path d="M0 635 C210 590 392 585 596 636 C815 690 1004 682 1200 628 V900 H0 Z" fill="url(#floor)" opacity="0.92"/>
  <path d="M95 675 C358 625 828 632 1098 684" fill="none" stroke="#ffffff" stroke-width="2" opacity="0.16"/>
  <ellipse cx="600" cy="752" rx="380" ry="70" fill="#020617" opacity="0.32" filter="url(#soft)"/>

  <g transform="translate(600 535) scale(1.2) translate(-600 -535)">
    
  <g filter="url(#shadow)" transform="rotate(-3 600 552) translate(0 8)">
    <rect x="220" y="342" width="760" height="350" rx="116" fill="url(#rubber)" filter="url(#texture)"/>
    <rect x="272" y="400" width="656" height="230" rx="86" fill="#111827"/>
    <rect x="272" y="400" width="656" height="230" rx="86" fill="url(#fineMesh)"/>
    <g opacity="0.86"><circle cx="306" cy="435" r="1.7" fill="#19f4c7" opacity="0.16"/><circle cx="337" cy="435" r="1.7" fill="#19f4c7" opacity="0.19"/><circle cx="368" cy="435" r="1.7" fill="#19f4c7" opacity="0.22"/><circle cx="399" cy="435" r="1.7" fill="#19f4c7" opacity="0.16"/><circle cx="430" cy="435" r="1.7" fill="#19f4c7" opacity="0.19"/><circle cx="461" cy="435" r="1.7" fill="#19f4c7" opacity="0.22"/><circle cx="492" cy="435" r="1.7" fill="#19f4c7" opacity="0.16"/><circle cx="523" cy="435" r="1.7" fill="#19f4c7" opacity="0.19"/><circle cx="554" cy="435" r="1.7" fill="#19f4c7" opacity="0.22"/><circle cx="585" cy="435" r="1.7" fill="#19f4c7" opacity="0.16"/><circle cx="616" cy="435" r="1.7" fill="#19f4c7" opacity="0.19"/><circle cx="647" cy="435" r="1.7" fill="#19f4c7" opacity="0.22"/><circle cx="678" cy="435" r="1.7" fill="#19f4c7" opacity="0.16"/><circle cx="709" cy="435" r="1.7" fill="#19f4c7" opacity="0.19"/><circle cx="740" cy="435" r="1.7" fill="#19f4c7" opacity="0.22"/><circle cx="771" cy="435" r="1.7" fill="#19f4c7" opacity="0.16"/><circle cx="802" cy="435" r="1.7" fill="#19f4c7" opacity="0.19"/><circle cx="833" cy="435" r="1.7" fill="#19f4c7" opacity="0.22"/><circle cx="306" cy="466" r="2.1" fill="#19f4c7" opacity="0.19"/><circle cx="337" cy="466" r="2.1" fill="#19f4c7" opacity="0.22"/><circle cx="368" cy="466" r="2.1" fill="#19f4c7" opacity="0.16"/><circle cx="399" cy="466" r="2.1" fill="#19f4c7" opacity="0.19"/><circle cx="430" cy="466" r="2.1" fill="#19f4c7" opacity="0.22"/><circle cx="461" cy="466" r="2.1" fill="#19f4c7" opacity="0.16"/><circle cx="492" cy="466" r="2.1" fill="#19f4c7" opacity="0.19"/><circle cx="523" cy="466" r="2.1" fill="#19f4c7" opacity="0.22"/><circle cx="554" cy="466" r="2.1" fill="#19f4c7" opacity="0.16"/><circle cx="585" cy="466" r="2.1" fill="#19f4c7" opacity="0.19"/><circle cx="616" cy="466" r="2.1" fill="#19f4c7" opacity="0.22"/><circle cx="647" cy="466" r="2.1" fill="#19f4c7" opacity="0.16"/><circle cx="678" cy="466" r="2.1" fill="#19f4c7" opacity="0.19"/><circle cx="709" cy="466" r="2.1" fill="#19f4c7" opacity="0.22"/><circle cx="740" cy="466" r="2.1" fill="#19f4c7" opacity="0.16"/><circle cx="771" cy="466" r="2.1" fill="#19f4c7" opacity="0.19"/><circle cx="802" cy="466" r="2.1" fill="#19f4c7" opacity="0.22"/><circle cx="833" cy="466" r="2.1" fill="#19f4c7" opacity="0.16"/><circle cx="306" cy="497" r="1.7" fill="#19f4c7" opacity="0.22"/><circle cx="337" cy="497" r="1.7" fill="#19f4c7" opacity="0.16"/><circle cx="368" cy="497" r="1.7" fill="#19f4c7" opacity="0.19"/><circle cx="399" cy="497" r="1.7" fill="#19f4c7" opacity="0.22"/><circle cx="430" cy="497" r="1.7" fill="#19f4c7" opacity="0.16"/><circle cx="461" cy="497" r="1.7" fill="#19f4c7" opacity="0.19"/><circle cx="492" cy="497" r="1.7" fill="#19f4c7" opacity="0.22"/><circle cx="523" cy="497" r="1.7" fill="#19f4c7" opacity="0.16"/><circle cx="554" cy="497" r="1.7" fill="#19f4c7" opacity="0.19"/><circle cx="585" cy="497" r="1.7" fill="#19f4c7" opacity="0.22"/><circle cx="616" cy="497" r="1.7" fill="#19f4c7" opacity="0.16"/><circle cx="647" cy="497" r="1.7" fill="#19f4c7" opacity="0.19"/><circle cx="678" cy="497" r="1.7" fill="#19f4c7" opacity="0.22"/><circle cx="709" cy="497" r="1.7" fill="#19f4c7" opacity="0.16"/><circle cx="740" cy="497" r="1.7" fill="#19f4c7" opacity="0.19"/><circle cx="771" cy="497" r="1.7" fill="#19f4c7" opacity="0.22"/><circle cx="802" cy="497" r="1.7" fill="#19f4c7" opacity="0.16"/><circle cx="833" cy="497" r="1.7" fill="#19f4c7" opacity="0.19"/><circle cx="306" cy="528" r="2.1" fill="#19f4c7" opacity="0.16"/><circle cx="337" cy="528" r="2.1" fill="#19f4c7" opacity="0.19"/><circle cx="368" cy="528" r="2.1" fill="#19f4c7" opacity="0.22"/><circle cx="399" cy="528" r="2.1" fill="#19f4c7" opacity="0.16"/><circle cx="430" cy="528" r="2.1" fill="#19f4c7" opacity="0.19"/><circle cx="461" cy="528" r="2.1" fill="#19f4c7" opacity="0.22"/><circle cx="492" cy="528" r="2.1" fill="#19f4c7" opacity="0.16"/><circle cx="523" cy="528" r="2.1" fill="#19f4c7" opacity="0.19"/><circle cx="554" cy="528" r="2.1" fill="#19f4c7" opacity="0.22"/><circle cx="585" cy="528" r="2.1" fill="#19f4c7" opacity="0.16"/><circle cx="616" cy="528" r="2.1" fill="#19f4c7" opacity="0.19"/><circle cx="647" cy="528" r="2.1" fill="#19f4c7" opacity="0.22"/><circle cx="678" cy="528" r="2.1" fill="#19f4c7" opacity="0.16"/><circle cx="709" cy="528" r="2.1" fill="#19f4c7" opacity="0.19"/><circle cx="740" cy="528" r="2.1" fill="#19f4c7" opacity="0.22"/><circle cx="771" cy="528" r="2.1" fill="#19f4c7" opacity="0.16"/><circle cx="802" cy="528" r="2.1" fill="#19f4c7" opacity="0.19"/><circle cx="833" cy="528" r="2.1" fill="#19f4c7" opacity="0.22"/><circle cx="306" cy="559" r="1.7" fill="#19f4c7" opacity="0.19"/><circle cx="337" cy="559" r="1.7" fill="#19f4c7" opacity="0.22"/><circle cx="368" cy="559" r="1.7" fill="#19f4c7" opacity="0.16"/><circle cx="399" cy="559" r="1.7" fill="#19f4c7" opacity="0.19"/><circle cx="430" cy="559" r="1.7" fill="#19f4c7" opacity="0.22"/><circle cx="461" cy="559" r="1.7" fill="#19f4c7" opacity="0.16"/><circle cx="492" cy="559" r="1.7" fill="#19f4c7" opacity="0.19"/><circle cx="523" cy="559" r="1.7" fill="#19f4c7" opacity="0.22"/><circle cx="554" cy="559" r="1.7" fill="#19f4c7" opacity="0.16"/><circle cx="585" cy="559" r="1.7" fill="#19f4c7" opacity="0.19"/><circle cx="616" cy="559" r="1.7" fill="#19f4c7" opacity="0.22"/><circle cx="647" cy="559" r="1.7" fill="#19f4c7" opacity="0.16"/><circle cx="678" cy="559" r="1.7" fill="#19f4c7" opacity="0.19"/><circle cx="709" cy="559" r="1.7" fill="#19f4c7" opacity="0.22"/><circle cx="740" cy="559" r="1.7" fill="#19f4c7" opacity="0.16"/><circle cx="771" cy="559" r="1.7" fill="#19f4c7" opacity="0.19"/><circle cx="802" cy="559" r="1.7" fill="#19f4c7" opacity="0.22"/><circle cx="833" cy="559" r="1.7" fill="#19f4c7" opacity="0.16"/><circle cx="306" cy="590" r="2.1" fill="#19f4c7" opacity="0.22"/><circle cx="337" cy="590" r="2.1" fill="#19f4c7" opacity="0.16"/><circle cx="368" cy="590" r="2.1" fill="#19f4c7" opacity="0.19"/><circle cx="399" cy="590" r="2.1" fill="#19f4c7" opacity="0.22"/><circle cx="430" cy="590" r="2.1" fill="#19f4c7" opacity="0.16"/><circle cx="461" cy="590" r="2.1" fill="#19f4c7" opacity="0.19"/><circle cx="492" cy="590" r="2.1" fill="#19f4c7" opacity="0.22"/><circle cx="523" cy="590" r="2.1" fill="#19f4c7" opacity="0.16"/><circle cx="554" cy="590" r="2.1" fill="#19f4c7" opacity="0.19"/><circle cx="585" cy="590" r="2.1" fill="#19f4c7" opacity="0.22"/><circle cx="616" cy="590" r="2.1" fill="#19f4c7" opacity="0.16"/><circle cx="647" cy="590" r="2.1" fill="#19f4c7" opacity="0.19"/><circle cx="678" cy="590" r="2.1" fill="#19f4c7" opacity="0.22"/><circle cx="709" cy="590" r="2.1" fill="#19f4c7" opacity="0.16"/><circle cx="740" cy="590" r="2.1" fill="#19f4c7" opacity="0.19"/><circle cx="771" cy="590" r="2.1" fill="#19f4c7" opacity="0.22"/><circle cx="802" cy="590" r="2.1" fill="#19f4c7" opacity="0.16"/><circle cx="833" cy="590" r="2.1" fill="#19f4c7" opacity="0.19"/><circle cx="306" cy="621" r="1.7" fill="#19f4c7" opacity="0.16"/><circle cx="337" cy="621" r="1.7" fill="#19f4c7" opacity="0.19"/><circle cx="368" cy="621" r="1.7" fill="#19f4c7" opacity="0.22"/><circle cx="399" cy="621" r="1.7" fill="#19f4c7" opacity="0.16"/><circle cx="430" cy="621" r="1.7" fill="#19f4c7" opacity="0.19"/><circle cx="461" cy="621" r="1.7" fill="#19f4c7" opacity="0.22"/><circle cx="492" cy="621" r="1.7" fill="#19f4c7" opacity="0.16"/><circle cx="523" cy="621" r="1.7" fill="#19f4c7" opacity="0.19"/><circle cx="554" cy="621" r="1.7" fill="#19f4c7" opacity="0.22"/><circle cx="585" cy="621" r="1.7" fill="#19f4c7" opacity="0.16"/><circle cx="616" cy="621" r="1.7" fill="#19f4c7" opacity="0.19"/><circle cx="647" cy="621" r="1.7" fill="#19f4c7" opacity="0.22"/><circle cx="678" cy="621" r="1.7" fill="#19f4c7" opacity="0.16"/><circle cx="709" cy="621" r="1.7" fill="#19f4c7" opacity="0.19"/><circle cx="740" cy="621" r="1.7" fill="#19f4c7" opacity="0.22"/><circle cx="771" cy="621" r="1.7" fill="#19f4c7" opacity="0.16"/><circle cx="802" cy="621" r="1.7" fill="#19f4c7" opacity="0.19"/><circle cx="833" cy="621" r="1.7" fill="#19f4c7" opacity="0.22"/></g>
    <circle cx="410" cy="515" r="78" fill="url(#body)"/>
    <circle cx="790" cy="515" r="78" fill="url(#body)"/>
    <circle cx="410" cy="515" r="39" fill="#0ea5e9" opacity="0.84"/>
    <circle cx="790" cy="515" r="39" fill="#0ea5e9" opacity="0.84"/>
    <rect x="532" y="466" width="136" height="104" rx="41" fill="#19f4c7" opacity="0.18"/>
    <path d="M305 366 H895" stroke="url(#glass)" stroke-width="18" stroke-linecap="round" opacity="0.33"/>
    <circle cx="548" cy="360" r="12" fill="#e5e7eb" opacity="0.55"/>
    <circle cx="600" cy="360" r="12" fill="#e5e7eb" opacity="0.55"/>
    <circle cx="652" cy="360" r="12" fill="#e5e7eb" opacity="0.55"/>
  </g>

  </g>
</svg>
