<svg xmlns="http://www.w3.org/2000/svg" width="1200" height="900" viewBox="0 0 1200 900" role="img" aria-labelledby="title desc">
  <title id="title">SteelSeries Arctis Nova 7 Wireless Gen 2</title>
  <desc id="desc">Eigene Produktvisualisierung fuer KlangFinder, keine Hersteller- oder Amazon-Grafik.</desc>
  
  <defs>
    <linearGradient id="bg" x1="0" x2="1" y1="0" y2="1">
      <stop offset="0%" stop-color="#0f172a"/>
      <stop offset="46%" stop-color="#172033"/>
      <stop offset="100%" stop-color="#eff6ff"/>
    </linearGradient>
    <radialGradient id="halo" cx="50%" cy="35%" r="55%">
      <stop offset="0%" stop-color="#19f4c7" stop-opacity="0.75"/>
      <stop offset="58%" stop-color="#0ea5e9" stop-opacity="0.18"/>
      <stop offset="100%" stop-color="#0ea5e9" stop-opacity="0"/>
    </radialGradient>
    <linearGradient id="body" x1="0" x2="1" y1="0" y2="1">
      <stop offset="0%" stop-color="#f8fbff"/>
      <stop offset="44%" stop-color="#19f4c7"/>
      <stop offset="100%" stop-color="#0ea5e9"/>
    </linearGradient>
    <linearGradient id="darkBody" x1="0" x2="1" y1="0" y2="1">
      <stop offset="0%" stop-color="#273247"/>
      <stop offset="100%" stop-color="#060b14"/>
    </linearGradient>
    <filter id="shadow" x="-30%" y="-30%" width="160%" height="170%">
      <feDropShadow dx="0" dy="34" stdDeviation="28" flood-color="#020617" flood-opacity="0.38"/>
    </filter>
    <filter id="soft" x="-20%" y="-20%" width="140%" height="140%">
      <feGaussianBlur stdDeviation="18"/>
    </filter>
  </defs>
  <rect width="1200" height="900" rx="58" fill="url(#bg)"/>
  <circle cx="340" cy="150" r="250" fill="url(#halo)"/>
  <circle cx="920" cy="220" r="260" fill="#19f4c7" opacity="0.18" filter="url(#soft)"/>
  <ellipse cx="600" cy="764" rx="365" ry="66" fill="#020617" opacity="0.28" filter="url(#soft)"/>

  
  <g filter="url(#shadow)" transform="translate(0 10)">
    <path d="M330 486 C330 230 870 230 870 486" fill="none" stroke="url(#darkBody)" stroke-width="78" stroke-linecap="round"/>
    <path d="M378 450 C410 304 790 304 822 450" fill="none" stroke="#19f4c7" stroke-width="16" stroke-linecap="round"/>
    <rect x="214" y="430" width="238" height="306" rx="74" fill="url(#darkBody)"/>
    <rect x="748" y="430" width="238" height="306" rx="74" fill="url(#darkBody)"/>
    <rect x="263" y="485" width="140" height="196" rx="48" fill="url(#body)"/>
    <rect x="797" y="485" width="140" height="196" rx="48" fill="url(#body)"/>
    <path d="M868 636 C940 656 998 690 1030 744" fill="none" stroke="#0ea5e9" stroke-width="22" stroke-linecap="round"/>
    <circle cx="1040" cy="763" r="28" fill="#19f4c7"/>
  </g>

</svg>
